<svg xmlns="http://www.w3.org/2000/svg" width="120.493" height="134.397" viewBox="0 0 120.493 134.397">
  <g id="Group_27" data-name="Group 27" transform="translate(-84.392 -191.883)">
    <g id="Group_25" data-name="Group 25" transform="translate(125.341 192.397)">
      <path id="Path_43" data-name="Path 43" d="M113.493,250.335l-.862-28.44a1.4,1.4,0,0,1,.519-1.133L127,209.542a1.4,1.4,0,0,1,1.365-.227l15.294,5.576a1.405,1.405,0,0,1,.922,1.248l1.652,32.679a1.4,1.4,0,0,1-1.336,1.473l-29.936,1.4A1.4,1.4,0,0,1,113.493,250.335Z" transform="translate(-112.631 -184.684)" fill="none" stroke="#fff" stroke-width="1"/>
      <path id="Path_44" data-name="Path 44" d="M125.2,214.3l29.655-21.632a1.4,1.4,0,0,1,1.327-.178l19.484,7.441a1.405,1.405,0,0,0,1.753-.675l2.578-5.072a1.4,1.4,0,0,1,2.644.459l3.527,27.838a1.4,1.4,0,0,1-.564,1.311l-21.868,15.95a1.4,1.4,0,0,1-2.176-1.521l1.692-5.893a1.406,1.406,0,0,0-.855-1.7L125.53,216.745A1.4,1.4,0,0,1,125.2,214.3Z" transform="translate(-107.136 -192.397)" fill="none" stroke="#fff" stroke-width="1"/>
    </g>
    <g id="Group_26" data-name="Group 26" transform="translate(84.893 259.557)">
      <path id="Path_45" data-name="Path 45" d="M115.6,240.03c6.206-.255,23.119-1.274,28.064-1.575a1.394,1.394,0,0,1,1.476,1.3l2.157,29.48a1.406,1.406,0,0,1-.544,1.215l-15.172,11.681a1.408,1.408,0,0,1-1.483.144l-14.3-7.122a1.4,1.4,0,0,1-.777-1.183c-.214-4.334-1.221-24.7-1.562-31.6A2.23,2.23,0,0,1,115.6,240.03Z" transform="translate(-71.805 -238.452)" fill="none" stroke="#fff" stroke-width="1"/>
      <path id="Path_46" data-name="Path 46" d="M85.533,266.431l21.247-13.78a1.4,1.4,0,0,1,2.021,1.8l-1.737,3.488a1.4,1.4,0,0,0,.631,1.883l33.621,16.739a1.4,1.4,0,0,1,.175,2.409l-27.351,19.036a1.4,1.4,0,0,1-1.346.141L92.721,289.7a1.4,1.4,0,0,0-1.8.668l-1.738,3.491a1.4,1.4,0,0,1-2.658-.537L84.9,267.7A1.406,1.406,0,0,1,85.533,266.431Z" transform="translate(-84.893 -232.053)" fill="none" stroke="#fff" stroke-width="1"/>
    </g>
  </g>
</svg>
